<?xml version="1.0" standalone="no"?>
<!DOCTYPE svg PUBLIC "-//W3C//DTD SVG 20010904//EN"
 "http://www.w3.org/TR/2001/REC-SVG-20010904/DTD/svg10.dtd">
<svg version="1.0" xmlns="http://www.w3.org/2000/svg"
 width="770.000000pt" height="324.000000pt" viewBox="0 0 770.000000 324.000000"
 preserveAspectRatio="xMidYMid meet">

<g transform="translate(0.000000,324.000000) scale(0.100000,-0.100000)"
fill="#000000" stroke="none">
<path d="M5403 2127 c-2 -4 2 -21 11 -37 8 -17 12 -28 8 -26 -4 2 -7 -89 -7
-202 0 -114 -2 -229 -5 -257 l-4 -50 64 -1 65 -1 -55 7 -55 7 46 1 47 2 6 53
c3 28 4 108 1 176 -4 126 2 155 31 144 7 -3 12 -9 9 -13 -3 -5 7 -18 21 -29
15 -12 23 -21 18 -21 -5 -1 7 -15 26 -32 19 -17 28 -27 20 -23 -8 3 1 -8 20
-25 19 -17 28 -28 20 -24 -13 6 6 -23 30 -46 3 -3 18 -24 33 -47 15 -24 30
-43 33 -43 4 0 0 8 -7 18 -11 15 -11 15 1 4 8 -7 16 -17 16 -22 1 -6 2 -14 3
-18 0 -5 14 -23 29 -40 27 -29 34 -32 91 -32 l62 0 -3 255 c-2 140 1 255 6
255 4 0 6 14 4 30 -3 17 -1 30 4 30 4 0 8 3 8 8 0 12 -123 4 -131 -9 -5 -8 -9
-6 -12 7 -3 10 -3 -1 0 -26 3 -25 9 -49 13 -55 9 -13 10 -334 1 -340 -4 -2
-23 14 -43 35 -19 22 -32 40 -29 40 3 0 -2 5 -11 11 -10 5 -18 16 -18 23 0 8
-8 20 -17 27 -17 13 -17 13 -3 -6 14 -19 14 -19 -2 -6 -10 7 -15 17 -13 22 8
12 -45 90 -56 83 -5 -3 -9 -2 -8 3 3 20 -2 34 -11 28 -5 -3 -7 0 -5 8 3 7 -7
27 -21 43 -15 16 -27 31 -25 34 1 3 -8 16 -21 29 -13 14 -17 21 -10 17 15 -9
15 4 -1 24 -9 11 -33 15 -90 15 -44 0 -81 -3 -84 -8z m27 -1 c0 -3 -4 -8 -10
-11 -5 -3 -10 -1 -10 4 0 6 5 11 10 11 6 0 10 -2 10 -4z"/>
<path d="M6126 2093 c-13 -13 -16 -13 -10 -3 7 13 6 13 -9 1 -21 -17 -21 -22
-1 -47 8 -10 13 -12 9 -4 -4 10 -1 9 8 -3 11 -13 24 -16 51 -13 48 7 56 12 56
41 0 43 -69 61 -104 28z"/>
<path d="M6721 2101 c-21 -13 -23 -47 -5 -65 16 -16 84 -19 84 -4 0 5 4 7 9 3
6 -3 15 4 21 16 9 17 8 24 -6 40 -18 20 -78 26 -103 10z"/>
<path d="M4166 2091 c-3 -4 -16 -6 -30 -4 -13 3 -27 -1 -31 -8 -6 -9 -3 -11 8
-6 9 3 19 1 23 -5 4 -6 3 -8 -3 -5 -6 4 -18 0 -28 -7 -17 -12 -16 -13 6 -11
13 1 28 -3 32 -9 5 -7 7 -5 5 6 -2 9 2 17 7 16 6 0 9 -3 8 -7 -1 -4 5 -8 13
-8 8 0 12 3 9 5 -3 3 0 11 6 19 9 10 8 13 0 13 -7 0 -9 5 -6 10 3 6 2 10 -4
10 -5 0 -12 -4 -15 -9z m14 -21 c0 -5 -2 -10 -4 -10 -3 0 -8 5 -11 10 -3 6 -1
10 4 10 6 0 11 -4 11 -10z"/>
<path d="M6388 1999 l3 -89 -60 0 -61 0 0 -35 0 -35 58 0 57 0 -3 -75 c-5 -84
4 -149 18 -140 6 3 7 0 4 -8 -5 -15 12 -33 36 -39 8 -2 18 -6 21 -10 3 -5 33
-11 68 -14 70 -8 81 -1 81 50 0 26 -2 28 -32 22 -19 -3 -44 0 -58 7 -23 12
-25 19 -30 105 -6 104 -7 102 71 102 l49 0 0 41 0 40 -55 -6 -55 -7 0 48 c1
27 4 67 9 90 l8 41 -66 0 -66 1 3 -89z"/>
<path d="M4206 2065 c-3 -8 -1 -15 4 -15 6 0 10 7 10 15 0 8 -2 15 -4 15 -2 0
-6 -7 -10 -15z"/>
<path d="M4615 1935 c-5 -2 -32 -6 -60 -10 l-50 -7 33 -13 c17 -8 32 -16 32
-19 0 -3 -16 2 -36 10 -30 13 -38 13 -45 2 -5 -7 -9 -9 -9 -3 0 5 -5 4 -12 -3
-14 -14 -32 -16 -23 -3 3 5 1 13 -5 16 -6 4 -10 3 -9 -2 4 -23 -3 -25 -17 -5
-8 12 -22 22 -31 22 -12 0 -14 -8 -9 -37 4 -27 3 -32 -4 -18 l-9 20 0 -20 c-1
-34 11 -65 22 -58 6 3 7 1 3 -5 -10 -17 -14 -15 -31 16 -15 27 -15 27 -11 2
15 -85 16 -95 7 -70 l-9 25 -1 -28 c-1 -19 -5 -26 -13 -21 -7 4 -8 3 -4 -5 4
-6 10 -9 14 -7 9 6 8 -97 -2 -112 -11 -19 3 -32 35 -32 18 0 32 6 36 16 5 13
7 13 14 2 6 -9 9 -6 9 10 0 13 -4 21 -8 18 -5 -3 -22 -1 -38 4 -29 8 -29 8 9
9 36 1 37 2 37 36 0 19 -4 35 -10 35 -5 0 -7 -15 -4 -32 4 -28 3 -30 -5 -11
-10 22 -5 103 6 113 3 3 3 -7 1 -22 -3 -16 -1 -28 3 -28 12 0 11 61 -1 80 -8
12 -10 12 -11 -5 0 -13 -2 -15 -6 -6 -3 8 2 20 13 28 25 19 39 16 23 -4 -7
-10 -1 -7 13 6 15 13 25 28 22 32 -3 5 -2 9 3 10 4 0 19 2 33 5 64 10 86 10
97 2 7 -5 17 -7 24 -3 8 6 8 2 0 -12 -7 -14 -7 -23 0 -30 6 -6 11 -36 12 -67
2 -59 13 -75 20 -28 2 15 2 -7 0 -48 -4 -100 -5 -105 -13 -40 l-7 55 -1 -55
c-1 -30 2 -61 7 -68 12 -19 114 -14 106 6 -3 7 -5 25 -5 38 0 18 -4 23 -12 18
-9 -6 -9 -3 0 9 8 9 11 20 8 26 -3 5 -3 23 0 41 5 22 9 28 15 18 5 -8 8 9 7
42 -1 54 -1 54 -8 15 l-7 -40 -2 42 c0 23 -10 58 -20 77 -11 19 -17 36 -14 39
2 3 -4 10 -15 16 -16 9 -24 7 -36 -5 -15 -15 -21 -8 -17 19 1 7 -16 8 -34 2z
m-38 -21 c-3 -3 -12 -4 -19 -1 -8 3 -5 6 6 6 11 1 17 -2 13 -5z m128 -12 c-3
-3 -11 0 -18 7 -9 10 -8 11 6 5 10 -3 15 -9 12 -12z m-226 -33 c-22 -13 -31
-11 -17 5 7 8 17 12 22 9 4 -3 2 -9 -5 -14z m36 11 c3 -5 1 -10 -4 -10 -6 0
-11 5 -11 10 0 6 2 10 4 10 3 0 8 -4 11 -10z m-115 -50 c-8 -5 -17 -7 -19 -4
-3 3 1 9 9 14 8 5 17 7 19 4 3 -3 -1 -9 -9 -14z m70 16 c0 -3 -4 -8 -10 -11
-5 -3 -10 -1 -10 4 0 6 5 11 10 11 6 0 10 -2 10 -4z m185 -16 c3 -5 2 -10 -4
-10 -5 0 -13 5 -16 10 -3 6 -2 10 4 10 5 0 13 -4 16 -10z m8 -50 c3 -11 1 -18
-4 -14 -5 3 -9 12 -9 20 0 20 7 17 13 -6z m38 -34 c-11 -27 -24 -37 -16 -11 3
8 7 22 10 31 3 9 8 15 11 12 2 -3 0 -17 -5 -32z m-331 -91 c0 -8 -4 -15 -10
-15 -5 0 -7 7 -4 15 4 8 8 15 10 15 2 0 4 -7 4 -15z m317 -52 c-3 -10 -5 -4
-5 12 0 17 2 24 5 18 2 -7 2 -21 0 -30z"/>
<path d="M5225 1929 c7 -11 -25 -20 -49 -14 -17 5 -18 4 -6 -4 11 -8 11 -11 2
-11 -7 0 -15 6 -17 13 -4 8 -28 12 -74 12 -38 0 -67 -3 -65 -6 2 -3 -12 -13
-31 -22 -24 -11 -35 -13 -35 -5 0 15 -11 4 -14 -15 -3 -19 -26 -47 -39 -47 -5
0 -1 8 9 18 10 9 20 24 22 32 1 8 -7 3 -19 -13 -11 -15 -25 -25 -30 -22 -5 4
-6 0 -3 -8 3 -8 0 -18 -7 -23 -8 -5 -10 -3 -4 6 5 9 4 11 -4 6 -9 -6 -9 -11 0
-22 10 -12 9 -13 -5 -8 -12 5 -15 2 -10 -10 3 -9 1 -16 -6 -16 -6 0 -10 -11
-8 -27 2 -17 8 -27 16 -25 10 2 10 -2 2 -18 -8 -16 -8 -20 2 -18 7 2 16 7 20
12 3 5 6 -2 6 -15 0 -43 9 -64 26 -61 9 2 16 -3 16 -11 0 -20 39 -35 80 -31
28 3 31 2 15 -5 -15 -7 -7 -10 35 -10 42 -1 51 2 40 10 -12 8 -9 9 12 5 35 -8
62 2 49 18 -7 8 -4 12 9 12 10 0 16 -4 13 -9 -3 -5 4 -3 15 4 12 7 18 17 15
23 -3 5 -1 6 4 3 13 -8 14 -57 1 -57 -6 0 -8 -11 -4 -24 3 -12 2 -26 -2 -30
-4 -4 -7 -11 -8 -14 -2 -20 -17 -41 -25 -36 -5 3 -9 0 -9 -6 0 -7 -7 -9 -16
-6 -8 3 -12 2 -9 -4 5 -9 -130 -9 -160 0 -5 1 -17 2 -25 0 -11 -1 -9 -4 5 -10
16 -7 17 -9 3 -9 -11 -1 -15 -7 -11 -21 4 -15 14 -20 39 -21 19 -1 44 -1 57
-2 12 -1 29 3 36 8 10 5 12 4 7 -3 -8 -13 20 -6 42 11 8 6 12 5 12 -3 0 -9 4
-9 13 -2 12 10 18 12 37 12 5 0 7 8 4 18 -5 16 -5 16 6 0 10 -16 12 -16 29 0
10 9 16 20 14 25 -2 4 1 7 6 7 6 0 11 -6 11 -12 0 -7 6 -4 12 7 6 11 16 23 21
27 13 8 18 56 26 266 5 151 4 172 -9 167 -9 -3 -8 0 3 9 17 13 13 15 -37 14
-30 -1 -53 -5 -51 -9z m-235 -74 c-15 -18 3 -21 22 -2 16 14 117 16 137 2 41
-31 53 -52 55 -103 2 -28 -1 -52 -6 -52 -5 0 -7 -4 -3 -9 3 -5 -4 -16 -15 -24
-11 -7 -17 -17 -12 -22 4 -5 2 -5 -4 -2 -6 3 -30 0 -55 -8 -24 -7 -35 -14 -25
-14 11 -1 16 -4 13 -8 -4 -3 -18 -1 -31 7 -14 7 -34 10 -45 7 -12 -3 -19 -2
-16 3 3 4 -3 11 -12 15 -10 3 -19 1 -21 -4 -2 -6 -10 -11 -18 -11 -18 0 -14
-23 6 -32 11 -6 10 -7 -5 -5 -11 1 -20 8 -20 15 0 7 -6 17 -14 21 -9 6 -10 11
-2 15 6 4 11 3 11 -3 0 -6 6 -8 14 -5 17 7 16 17 -11 71 -14 28 -17 43 -9 46
7 3 6 10 -4 22 -8 10 -10 16 -4 12 6 -3 24 8 40 26 25 27 25 29 4 12 -21 -17
-20 -15 4 13 30 32 50 45 26 17z m-99 -68 c-10 -9 -11 -8 -5 6 3 10 9 15 12
12 3 -3 0 -11 -7 -18z m-37 -42 c-4 -8 -8 -15 -10 -15 -2 0 -4 7 -4 15 0 8 4
15 10 15 5 0 7 -7 4 -15z m281 -163 c-3 -3 -11 0 -18 7 -9 10 -8 11 6 5 10 -3
15 -9 12 -12z"/>
<path d="M3880 1911 c-7 -15 -7 -20 4 -23 13 -3 13 -6 1 -22 -11 -14 -18 -16
-28 -8 -10 8 -13 7 -13 -7 0 -24 21 -21 47 8 16 17 18 25 9 36 -6 8 -9 19 -5
25 3 5 4 10 1 10 -3 0 -10 -9 -16 -19z"/>
<path d="M3736 1905 c-3 -8 -1 -15 4 -15 6 0 10 7 10 15 0 8 -2 15 -4 15 -2 0
-6 -7 -10 -15z"/>
<path d="M4118 1913 c18 -2 45 -2 60 0 15 2 0 4 -33 4 -33 0 -45 -2 -27 -4z"/>
<path d="M4336 1893 c6 -31 14 -43 15 -22 0 8 2 22 4 32 2 9 -3 17 -10 17 -9
0 -12 -9 -9 -27z"/>
<path d="M6105 1909 c6 -9 7 -71 2 -254 -1 -27 -6 -53 -12 -57 -7 -5 -7 -13 1
-25 8 -13 25 -17 65 -18 l54 0 -3 138 c-2 75 1 158 6 182 l10 45 -65 0 c-43 0
-62 -4 -58 -11z"/>
<path d="M6705 1782 c0 -75 -4 -158 -8 -184 l-7 -48 63 0 62 0 0 138 c0 75 3
158 7 185 l8 47 -63 0 -62 0 0 -138z"/>
<path d="M4124 1886 c-3 -8 -4 -25 -1 -38 3 -17 5 -15 6 10 1 25 5 32 21 32
11 0 20 -4 20 -10 0 -5 4 -10 10 -10 5 0 7 7 4 15 -8 19 -53 20 -60 1z"/>
<path d="M3656 1867 c3 -10 9 -15 12 -12 3 3 0 11 -7 18 -10 9 -11 8 -5 -6z"/>
<path d="M3810 1871 c0 -6 4 -13 10 -16 6 -3 7 1 4 9 -7 18 -14 21 -14 7z"/>
<path d="M3945 1869 c-4 -6 -4 -13 -1 -16 3 -4 6 -1 6 6 0 7 5 9 12 5 7 -4 8
-3 4 4 -9 15 -13 15 -21 1z"/>
<path d="M4140 1855 c0 -14 2 -25 4 -25 2 0 6 11 8 25 3 14 1 25 -3 25 -5 0
-9 -11 -9 -25z"/>
<path d="M4740 1871 c0 -6 4 -13 10 -16 6 -3 7 1 4 9 -7 18 -14 21 -14 7z"/>
<path d="M3614 1859 c-3 -6 -1 -16 5 -22 9 -9 10 -7 5 7 -6 16 -4 18 10 13 10
-4 15 -3 11 3 -8 13 -22 13 -31 -1z"/>
<path d="M4162 1826 c0 -29 2 -36 9 -24 5 10 5 26 0 40 -7 20 -9 17 -9 -16z"/>
<path d="M4194 1710 c0 -85 2 -120 3 -77 2 42 2 112 0 155 -1 42 -3 7 -3 -78z"/>
<path d="M3603 1815 c0 -8 4 -12 9 -9 5 3 6 10 3 15 -9 13 -12 11 -12 -6z"/>
<path d="M3880 1810 c0 -19 3 -21 12 -12 9 9 9 15 0 24 -9 9 -12 7 -12 -12z"/>
<path d="M4322 1800 c0 -19 2 -27 5 -17 2 9 2 25 0 35 -3 9 -5 1 -5 -18z"/>
<path d="M3950 1809 c0 -5 5 -7 10 -4 6 3 10 8 10 11 0 2 -4 4 -10 4 -5 0 -10
-5 -10 -11z"/>
<path d="M4140 1809 c0 -5 -4 -8 -9 -4 -5 3 -13 0 -17 -6 -4 -7 -3 -9 4 -5 11
7 10 -55 -3 -106 -4 -17 -2 -34 8 -48 13 -19 14 -13 15 59 0 43 3 88 7 100 3
12 4 21 1 21 -3 0 -6 -5 -6 -11z"/>
<path d="M3862 1735 c0 -16 2 -22 5 -12 2 9 2 23 0 30 -3 6 -5 -1 -5 -18z"/>
<path d="M3891 1734 c0 -11 3 -14 6 -6 3 7 2 16 -1 19 -3 4 -6 -2 -5 -13z"/>
<path d="M4092 1685 c0 -16 2 -22 5 -12 2 9 2 23 0 30 -3 6 -5 -1 -5 -18z"/>
<path d="M3863 1665 c0 -22 2 -30 4 -17 2 12 2 30 0 40 -3 9 -5 -1 -4 -23z"/>
<path d="M3972 1650 c0 -19 2 -27 5 -17 2 9 2 25 0 35 -3 9 -5 1 -5 -18z"/>
<path d="M4150 1656 c0 -8 4 -17 9 -20 5 -4 7 3 4 14 -6 23 -13 26 -13 6z"/>
<path d="M3641 1644 c0 -11 3 -14 6 -6 3 7 2 16 -1 19 -3 4 -6 -2 -5 -13z"/>
<path d="M3951 1624 c0 -11 3 -14 6 -6 3 7 2 16 -1 19 -3 4 -6 -2 -5 -13z"/>
<path d="M4101 1614 c0 -11 3 -14 6 -6 3 7 2 16 -1 19 -3 4 -6 -2 -5 -13z"/>
<path d="M4150 1603 c0 -15 -2 -16 -10 -3 -8 12 -10 11 -10 -6 0 -12 7 -24 15
-28 11 -4 15 2 15 24 0 17 -2 30 -5 30 -3 0 -5 -8 -5 -17z"/>
<path d="M4171 1574 c0 -11 3 -14 6 -6 3 7 2 16 -1 19 -3 4 -6 -2 -5 -13z"/>
<path d="M4370 1560 l-65 -7 62 -1 c34 -1 65 3 68 8 3 6 5 9 3 8 -2 -1 -32 -4
-68 -8z"/>
<path d="M4633 1560 c2 -8 12 -16 23 -17 13 -2 15 -1 4 4 -8 3 -19 11 -23 17
-6 7 -7 6 -4 -4z"/>
<path d="M3538 1553 c7 -3 16 -2 19 1 4 3 -2 6 -13 5 -11 0 -14 -3 -6 -6z"/>
<path d="M3960 1550 c-9 -6 -10 -10 -3 -10 6 0 15 5 18 10 8 12 4 12 -15 0z"/>
</g>
</svg>
